<?xml version="1.0" standalone="no"?>
<!DOCTYPE svg PUBLIC "-//W3C//DTD SVG 20010904//EN"
 "http://www.w3.org/TR/2001/REC-SVG-20010904/DTD/svg10.dtd">
<svg version="1.0" xmlns="http://www.w3.org/2000/svg"
 width="400.000000pt" height="400.000000pt" viewBox="0 0 400.000000 400.000000"
 preserveAspectRatio="xMidYMid meet">
<metadata>
Created by potrace 1.11, written by Peter Selinger 2001-2013
</metadata>
<g transform="translate(0.000000,400.000000) scale(0.100000,-0.100000)"
fill="#000000" stroke="none">
<path d="M1755 3459 c-233 -44 -486 -124 -576 -182 -220 -143 -417 -470 -559
-928 -66 -210 -64 -308 7 -494 55 -145 175 -350 293 -501 32 -41 66 -105 105
-200 231 -556 365 -637 1060 -638 327 0 425 12 540 69 150 73 213 171 346 530
50 136 73 184 114 240 204 275 319 509 346 703 11 71 9 85 -15 178 -52 202
-146 451 -233 613 -104 194 -260 375 -383 444 -98 54 -343 128 -559 168 -138
25 -347 24 -486 -2z m468 -14 c155 -25 432 -103 534 -151 88 -42 212 -156 295
-271 67 -93 182 -310 231 -438 46 -119 123 -368 131 -426 25 -171 -102 -465
-333 -776 -42 -57 -81 -103 -88 -103 -22 0 -72 35 -77 54 -9 33 6 80 37 119
39 50 56 102 68 202 25 220 -13 465 -106 686 -57 135 -98 173 -213 198 -117
25 -365 2 -597 -53 l-104 -25 -80 19 c-182 46 -312 63 -471 64 -163 0 -206 -8
-269 -53 -57 -41 -129 -214 -178 -431 -23 -99 -27 -136 -26 -265 2 -198 19
-271 88 -364 16 -22 25 -47 25 -72 0 -32 -5 -41 -34 -58 -18 -12 -38 -21 -44
-21 -28 0 -237 306 -312 458 -85 170 -104 239 -104 372 0 114 0 116 61 295
119 350 230 560 393 737 84 92 175 150 301 192 136 46 362 101 469 115 47 6
96 13 110 15 39 7 196 -4 293 -19z m-290 -1022 c-7 -2 -21 -2 -30 0 -10 3 -4
5 12 5 17 0 24 -2 18 -5z m234 -148 c71 -15 123 -35 123 -47 0 -4 18 -17 40
-28 22 -11 40 -25 40 -30 0 -6 6 -10 14 -10 11 0 86 -72 86 -84 0 -2 -26 -4
-58 -5 -31 0 -73 -5 -92 -11 -43 -12 -43 -12 -34 2 4 7 3 8 -5 4 -6 -4 -8 -12
-5 -18 5 -7 0 -9 -14 -6 -12 4 -20 3 -17 -1 8 -13 -56 -53 -76 -48 -10 3 -17
2 -14 -3 3 -4 -2 -11 -11 -14 -8 -3 -12 -2 -9 3 3 5 0 13 -6 17 -7 4 -9 3 -5
-4 6 -10 -30 -52 -45 -52 -9 0 -42 -71 -52 -112 -6 -21 -13 -28 -32 -28 -19 0
-25 5 -25 23 -1 12 -7 33 -15 47 -17 29 -20 52 -4 30 9 -13 10 -13 6 0 -2 8
-8 15 -13 15 -18 0 -34 17 -28 28 4 7 4 9 -1 5 -4 -4 -20 1 -34 12 -15 10 -39
22 -54 25 -15 4 -27 11 -27 16 0 5 -12 14 -26 19 -15 6 -22 14 -18 22 4 7 3 8
-4 4 -6 -4 -32 0 -57 9 -25 8 -73 15 -105 15 l-60 0 59 59 c33 33 74 67 90 76
17 8 31 19 31 23 0 11 58 34 120 48 78 17 256 17 337 -1z m-657 -205 c8 -5 11
-10 5 -10 -5 0 -17 5 -25 10 -8 5 -10 10 -5 10 6 0 17 -5 25 -10z m1057 -26
c-3 -3 -12 -4 -19 -1 -8 3 -5 6 6 6 11 1 17 -2 13 -5z m-859 -31 c23 -9 40
-18 37 -21 -4 -4 -275 -6 -295 -2 -3 0 9 8 25 17 62 34 149 36 233 6z m817 -3
l40 -18 -155 -1 c-123 0 -151 2 -135 11 67 39 173 43 250 8z m-1022 -79 c5 -1
-5 -13 -22 -27 -17 -14 -28 -31 -24 -36 3 -7 1 -8 -5 -4 -19 12 -46 -55 -46
-114 0 -65 31 -130 79 -160 l30 -20 -76 0 c-63 0 -82 4 -110 23 -48 32 -69 79
-69 155 0 147 69 199 243 183z m346 -29 c54 -44 62 -65 59 -166 l-3 -88 -44
-39 c-42 -37 -47 -39 -112 -39 l-69 0 41 37 c50 46 69 81 68 130 0 21 -3 32
-6 26 -2 -7 -16 -13 -29 -13 -17 0 -24 5 -24 20 0 26 25 36 47 19 15 -12 16
-12 10 4 -4 10 -7 23 -7 28 0 6 -5 7 -12 3 -7 -4 -8 -3 -4 4 4 7 4 18 0 24 -6
9 -10 5 -14 -11 -11 -47 -34 -48 -86 -4 -27 22 -64 48 -81 57 -18 9 -33 21
-33 26 0 10 95 16 199 13 54 -1 69 -6 100 -31z m477 30 c-2 -4 24 -6 60 -4 70
5 84 -7 36 -32 -16 -8 -52 -33 -80 -55 -28 -23 -56 -41 -61 -41 -15 0 -33 39
-27 56 10 25 -3 15 -19 -16 -21 -40 -19 -48 10 -42 31 5 45 -22 22 -45 -13
-14 -17 -13 -37 7 l-22 22 7 -48 c7 -57 34 -104 78 -139 l32 -25 -71 0 c-57 0
-77 4 -104 23 -49 33 -70 80 -70 155 0 94 29 148 98 179 30 13 156 17 148 5z
m325 -12 c65 -34 80 -69 77 -176 -2 -73 -7 -96 -22 -113 -10 -11 -23 -18 -29
-14 -6 3 -7 1 -3 -5 12 -20 -50 -42 -120 -42 l-67 0 36 28 c73 55 97 155 56
239 -19 40 -38 59 -85 90 -37 23 111 16 157 -7z m-631 -201 c0 -6 -5 -19 -10
-29 -8 -16 -8 -18 5 -14 10 4 15 0 15 -15 0 -25 27 -70 52 -89 10 -7 16 -17
14 -21 -3 -4 0 -8 7 -8 16 0 157 -71 157 -79 0 -2 -12 -1 -27 2 -16 4 -25 4
-21 0 3 -4 21 -9 40 -11 18 -2 53 -9 78 -16 25 -6 65 -11 90 -10 43 1 134 25
155 41 6 5 17 1 25 -8 13 -14 12 -15 -3 -9 -9 3 -27 2 -39 -3 -13 -5 -17 -9
-10 -9 14 -1 17 -31 3 -31 -13 0 -71 -87 -71 -106 0 -7 -4 -14 -10 -14 -5 0
-24 -13 -42 -30 -57 -51 -68 -60 -76 -60 -4 0 -20 -12 -35 -26 -26 -24 -30
-25 -46 -10 -24 22 -37 21 -196 -21 -77 -20 -153 -36 -168 -35 -15 1 -25 -3
-22 -8 9 -14 -9 -12 -22 1 -7 7 -33 14 -60 16 -26 2 -57 12 -68 21 -35 30 -84
62 -95 62 -5 0 -10 4 -10 10 0 5 -13 16 -29 25 -16 8 -32 24 -36 35 -3 11 -23
36 -43 55 -31 29 -34 35 -17 35 17 0 17 2 -5 13 -14 7 -25 18 -25 25 0 6 -10
19 -23 27 -12 9 -20 20 -17 25 3 4 -4 10 -15 13 -11 3 -20 11 -20 19 0 9 2 10
8 1 4 -6 20 -15 35 -18 15 -4 27 -10 27 -14 0 -9 28 -13 118 -14 98 -1 152 6
144 17 -3 5 2 6 12 3 9 -4 15 -3 12 2 -6 9 41 42 108 76 21 11 48 32 59 47 11
15 24 25 28 22 4 -2 11 1 15 7 5 8 3 9 -6 4 -10 -6 -12 -4 -6 11 5 10 11 38
13 62 5 36 9 42 29 42 13 0 24 -5 24 -11z m-276 -208 c10 -15 -94 -43 -157
-42 -62 0 -137 24 -137 43 0 11 288 9 294 -1z m816 2 c0 -18 -94 -45 -154 -45
-57 0 -156 29 -156 46 0 3 70 6 155 6 85 0 155 -3 155 -7z m89 4 c-2 -1 -13
-9 -24 -17 -19 -14 -19 -14 -6 3 7 9 18 17 24 17 6 0 8 -1 6 -3z m-1262 -13
c-3 -3 -12 -4 -19 -1 -8 3 -5 6 6 6 11 1 17 -2 13 -5z m915 -386 c-7 -7 -12
-8 -12 -2 0 14 12 26 19 19 2 -3 -1 -11 -7 -17z m-68 -14 c3 -9 6 -54 6 -100
0 -77 -2 -87 -25 -109 -24 -25 -25 -25 -225 -25 -187 0 -201 1 -220 20 -23 23
-27 77 -7 104 9 12 78 35 217 71 230 59 245 62 254 39z m-417 -20 c-3 -3 -12
-4 -19 -1 -8 3 -5 6 6 6 11 1 17 -2 13 -5z"/>
<path d="M1976 1868 c3 -5 10 -6 15 -3 13 9 11 12 -6 12 -8 0 -12 -4 -9 -9z"/>
<path d="M1980 1829 c0 -5 9 -9 20 -9 11 0 20 2 20 4 0 2 -9 6 -20 9 -11 3
-20 1 -20 -4z"/>
<path d="M1988 1713 c7 -3 16 -2 19 1 4 3 -2 6 -13 5 -11 0 -14 -3 -6 -6z"/>
<path d="M1975 1599 c-4 -6 -4 -13 -1 -16 3 -4 6 -1 6 6 0 7 5 9 12 5 7 -4 8
-3 4 4 -9 15 -13 15 -21 1z"/>
<path d="M1936 1573 c-6 -14 -5 -15 5 -6 7 7 10 15 7 18 -3 3 -9 -2 -12 -12z"/>
<path d="M1897 1546 c-17 -13 -17 -14 0 -20 10 -4 14 -4 10 0 -4 4 -2 13 4 21
14 17 9 16 -14 -1z"/>
<path d="M1930 1546 c0 -2 8 -10 18 -17 15 -13 16 -12 3 4 -13 16 -21 21 -21
13z"/>
<path d="M1958 1463 c23 -2 61 -2 85 0 23 2 4 4 -43 4 -47 0 -66 -2 -42 -4z"/>
<path d="M1810 1456 c0 -2 7 -7 16 -10 8 -3 12 -2 9 4 -6 10 -25 14 -25 6z"/>
<path d="M1903 1443 c-13 -2 -36 -18 -53 -34 -26 -26 -30 -38 -30 -83 0 -43 5
-57 25 -76 13 -12 22 -26 20 -30 -2 -4 51 -8 119 -9 l124 -2 36 31 c33 29 36
37 36 85 0 46 -4 58 -29 83 -17 16 -44 32 -62 36 -34 6 -150 6 -186 -1z"/>
<path d="M2194 1292 c1 -17 19 -17 24 0 3 10 1 10 -6 -1 -9 -12 -11 -12 -14 0
-3 9 -5 10 -4 1z"/>
<path d="M1800 1291 c0 -7 -5 -9 -12 -5 -7 5 -8 3 -3 -5 5 -9 10 -10 18 -2 6
6 8 14 4 18 -4 3 -7 1 -7 -6z"/>
</g>
</svg>
